<svg width="64" height="64" viewBox="0 0 64 64" fill="none" xmlns="http://www.w3.org/2000/svg">
  <defs>
    <linearGradient id="bg" x1="8" y1="6" x2="52" y2="58" gradientUnits="userSpaceOnUse">
      <stop stop-color="#0F1720" />
      <stop offset="1" stop-color="#132B34" />
    </linearGradient>
    <linearGradient id="drop" x1="20" y1="14" x2="44" y2="50" gradientUnits="userSpaceOnUse">
      <stop stop-color="#CFF7E9" />
      <stop offset="1" stop-color="#0FBA8F" />
    </linearGradient>
    <radialGradient id="glow" cx="0" cy="0" r="1" gradientUnits="userSpaceOnUse" gradientTransform="translate(32 18) rotate(90) scale(26)">
      <stop stop-color="#48D6AE" stop-opacity="0.75" />
      <stop offset="1" stop-color="#48D6AE" stop-opacity="0" />
    </radialGradient>
  </defs>
  <rect x="4" y="4" width="56" height="56" rx="16" fill="url(#bg)" />
  <rect x="4" y="4" width="56" height="56" rx="16" fill="url(#glow)" />
  <path
    d="M32 11C23 22.2 17 31 17 38.6C17 47 23.6 53 32 53C40.4 53 47 47 47 38.6C47 31 41 22.2 32 11Z"
    fill="url(#drop)"
    stroke="#9DF2D4"
    stroke-width="1.25"
  />
  <path
    d="M26 36.5C26 31.3 29.4 26.9 34 25.5"
    stroke="#0F1720"
    stroke-width="2"
    stroke-linecap="round"
    opacity="0.6"
  />
  <circle cx="35.5" cy="23.5" r="2.5" fill="#F7FFFB" />
</svg>
