<svg width="640" height="480" viewBox="0 0 640 480" fill="none" xmlns="http://www.w3.org/2000/svg">
  <defs>
    <linearGradient id="bg" x1="80" y1="40" x2="520" y2="420" gradientUnits="userSpaceOnUse">
      <stop stop-color="#F4F7F5" />
      <stop offset="1" stop-color="#E8F5F1" />
    </linearGradient>
    <linearGradient id="bottle" x1="280" y1="90" x2="360" y2="380" gradientUnits="userSpaceOnUse">
      <stop stop-color="#0FBA8F" />
      <stop offset="1" stop-color="#0F8FBA" />
    </linearGradient>
    <linearGradient id="cap" x1="308" y1="72" x2="332" y2="116" gradientUnits="userSpaceOnUse">
      <stop stop-color="#0F1720" stop-opacity="0.8" />
      <stop offset="1" stop-color="#0F1720" stop-opacity="0.92" />
    </linearGradient>
    <linearGradient id="cream" x1="140" y1="160" x2="220" y2="330" gradientUnits="userSpaceOnUse">
      <stop stop-color="#F9FBFA" />
      <stop offset="1" stop-color="#E2EBE6" />
    </linearGradient>
    <linearGradient id="shadow" x1="220" y1="380" x2="420" y2="430" gradientUnits="userSpaceOnUse">
      <stop stop-color="#BBD7CC" stop-opacity="0.35" />
      <stop offset="1" stop-color="#9EC5B8" stop-opacity="0.25" />
    </linearGradient>
  </defs>
  <rect width="640" height="480" rx="40" fill="url(#bg)" />
  <ellipse cx="320" cy="390" rx="160" ry="28" fill="url(#shadow)" />
  <rect x="292" y="70" width="56" height="52" rx="16" fill="url(#cap)" />
  <rect x="274" y="116" width="92" height="220" rx="26" fill="url(#bottle)" />
  <rect x="246" y="142" width="148" height="12" rx="6" fill="rgba(255,255,255,0.65)" />
  <rect x="286" y="190" width="88" height="6" rx="3" fill="rgba(255,255,255,0.75)" />
  <rect x="286" y="206" width="88" height="6" rx="3" fill="rgba(255,255,255,0.5)" />
  <rect x="286" y="222" width="88" height="6" rx="3" fill="rgba(255,255,255,0.4)" />
  <rect x="182" y="170" width="60" height="200" rx="22" fill="url(#cream)" />
  <rect x="402" y="162" width="52" height="192" rx="18" fill="#D8E6E0" />
  <circle cx="206" cy="176" r="16" fill="#0FBA8F" opacity="0.14" />
  <circle cx="428" cy="176" r="14" fill="#0FBA8F" opacity="0.16" />
  <rect x="186" y="340" width="52" height="16" rx="8" fill="#C9D9D2" />
  <rect x="410" y="330" width="36" height="14" rx="7" fill="#C9D9D2" />
  <text x="320" y="360" text-anchor="middle" fill="#F6F7F6" font-size="18" font-weight="600" font-family="'Inter', system-ui, sans-serif">minimal glow</text>
</svg>
